Coordinates
version=1
nRows=14
nColumns=38
inDegrees=no

Units are S.I. units (second, meters, Newtons, ...)
If the header above contains a line with 'inDegrees', this indicates whether rotational values are in degrees (yes) or radians (no).

endheader
time	pelvis_tilt	pelvis_list	pelvis_rotation	pelvis_tx	pelvis_ty	pelvis_tz	hip_flexion_r	hip_adduction_r	hip_rotation_r	knee_angle_r	ankle_angle_r	subtalar_angle_r	mtp_angle_r	hip_flexion_l	hip_adduction_l	hip_rotation_l	knee_angle_l	ankle_angle_l	subtalar_angle_l	mtp_angle_l	lumbar_extension	lumbar_bending	lumbar_rotation	arm_flex_r	arm_add_r	arm_rot_r	elbow_flex_r	pro_sup_r	wrist_flex_r	wrist_dev_r	arm_flex_l	arm_add_l	arm_rot_l	elbow_flex_l	pro_sup_l	wrist_flex_l	wrist_dev_l
10	-2.63228	1.41918	-1.80809	0.656793	0.274617	0.936863	-0.330402	-0.0550154	-0.571345	0	-0.00119778	0	0	-0.140988	-0.0312376	-0.0826361	0	-0.144105	0	0	-0.270667	-0.0335295	0.170216	0.0524909	-0.407869	0.0256285	0.36826	1.3322	0	0	0.0248073	-0.453282	-0.538167	0.614581	1.29663	0	0
10.01	-2.62859	1.41946	-1.80957	0.656812	0.274449	0.936866	-0.330248	-0.0547226	-0.573094	0	-0.00113549	0	0	-0.140061	-0.0310505	-0.0809262	0	-0.144489	0	0	-0.270422	-0.0334788	0.17081	0.0524917	-0.408748	0.0311314	0.364446	1.34242	0	0	0.0233358	-0.455994	-0.526603	0.618706	1.31279	0	0
10.02	-2.62544	1.4195	-1.8105	0.656713	0.274363	0.936849	-0.330295	-0.0544272	-0.574877	0	-0.00103769	0	0	-0.139301	-0.0308711	-0.0792747	0	-0.14513	0	0	-0.270397	-0.0333303	0.171392	0.0519826	-0.408863	0.0388393	0.361359	1.34904	0	0	0.0220915	-0.457377	-0.514246	0.622392	1.32451	0	0
10.03	-2.62269	1.41936	-1.81124	0.656727	0.274138	0.936871	-0.330603	-0.0541939	-0.576519	0	-0.000798203	0	0	-0.138879	-0.0307272	-0.0781667	0	-0.144969	0	0	-0.27059	-0.033229	0.171947	0.0509369	-0.408442	0.0478699	0.35982	1.35087	0	0	0.0209793	-0.457486	-0.501725	0.625192	1.33256	0	0
10.04	-2.61927	1.41903	-1.81284	0.656663	0.274037	0.936859	-0.331043	-0.0540607	-0.57798	0	-0.000382744	0	0	-0.138664	-0.0304806	-0.076858	0	-0.145274	0	0	-0.270969	-0.0334647	0.172669	0.0496245	-0.407402	0.0577254	0.359239	1.34786	0	0	0.0199876	-0.45637	-0.489398	0.628269	1.33683	0	0
10.05	-2.61621	1.41852	-1.8141	0.656759	0.273831	0.936878	-0.331676	-0.0539127	-0.579189	0	0.000263841	0	0	-0.138605	-0.0301792	-0.0753956	0	-0.145949	0	0	-0.271662	-0.0337631	0.173222	0.0468744	-0.407991	0.0863638	0.363437	1.2985	0	0	0.0179652	-0.454775	-0.470043	0.633588	1.29129	0	0
10.06	-2.61329	1.41828	-1.81513	0.656735	0.273809	0.936835	-0.33202	-0.0536491	-0.580409	0	0.00117612	0	0	-0.138208	-0.0299907	-0.0737594	0	-0.146524	0	0	-0.272238	-0.0339898	0.174292	0.0471103	-0.403369	0.07934	0.358717	1.33145	0	0	0.0190953	-0.450271	-0.464345	0.633447	1.33725	0	0
10.07	-2.6101	1.41776	-1.81663	0.656768	0.273519	0.936876	-0.332635	-0.0536854	-0.582191	0	0.000915883	0	0	-0.138171	-0.0296604	-0.072783	0	-0.146386	0	0	-0.27314	-0.0343736	0.175348	0.0457009	-0.400324	0.0906486	0.35882	1.32066	0	0	0.0189504	-0.445428	-0.451189	0.635016	1.33525	0	0
10.08	-2.60786	1.41718	-1.81732	0.656766	0.273379	0.936873	-0.333243	-0.0536139	-0.583609	0	0.000826599	0	0	-0.13821	-0.0294676	-0.072084	0	-0.146064	0	0	-0.274273	-0.0346565	0.176472	0.0460143	-0.393864	0.082953	0.354704	1.33999	0	0	0.0201395	-0.438078	-0.444153	0.634813	1.33409	0	0
10.09	-2.60634	1.41621	-1.81708	0.656775	0.273265	0.936866	-0.334304	-0.0534036	-0.584959	0	0.00136849	0	0	-0.13861	-0.0293362	-0.071055	0	-0.145876	0	0	-0.275836	-0.0349482	0.177084	0.0455164	-0.388104	0.0844639	0.353677	1.34708	0	0	0.0208729	-0.430381	-0.434394	0.634038	1.34179	0	0
10.1	-2.6056	1.41503	-1.81609	0.656767	0.272882	0.93693	-0.335718	-0.0531092	-0.586112	0	0.00216961	0	0	-0.139346	-0.0292733	-0.0700631	0	-0.145545	0	0	-0.277747	-0.0351493	0.177754	0.0446026	-0.382061	0.0876313	0.353496	1.35153	0	0	0.0217485	-0.421634	-0.42386	0.632942	1.34615	0	0
10.11	-2.60431	1.41361	-1.81581	0.656797	0.272667	0.936976	-0.337209	-0.0531543	-0.588052	0	0.00166262	0	0	-0.140281	-0.0289426	-0.0692717	0	-0.145375	0	0	-0.27986	-0.0354366	0.178436	0.0435499	-0.375684	0.0927261	0.354144	1.35313	0	0	0.0225264	-0.41178	-0.4124	0.632094	1.34701	0	0
10.12	-2.60303	1.41235	-1.81559	0.656747	0.272467	0.937004	-0.338541	-0.0531645	-0.589901	0	0.00138952	0	0	-0.141121	-0.0286805	-0.068601	0	-0.144971	0	0	-0.281731	-0.0357021	0.178961	0.0426458	-0.368878	0.0998461	0.355237	1.35259	0	0	0.0231316	-0.401021	-0.400262	0.630505	1.34545	0	0
10.13	-2.60193	1.41124	-1.81519	0.656799	0.272161	0.93704	-0.339768	-0.0531144	-0.591483	0	0.00158214	0	0	-0.141811	-0.0284622	-0.0679806	0	-0.144766	0	0	-0.283513	-0.0359671	0.179438	0.0417132	-0.361756	0.109653	0.356454	1.35164	0	0	0.023758	-0.3898	-0.387075	0.627479	1.3445	0	0
